HIERARCHY
ROOT Hips
{
	OFFSET 0.000000 83.214638 0.000000
	CHANNELS 6 Xposition Yposition Zposition Xrotation Yrotation Zrotation
	JOINT Pelvis
	{
		OFFSET 0.000000 0.000000 0.000000
		CHANNELS 3 Xrotation Yrotation Zrotation
		JOINT LeftUpLeg
		{
			OFFSET 8.479700 -4.795502 -0.379100
			CHANNELS 3 Xrotation Yrotation Zrotation
			JOINT LeftLeg
			{
				OFFSET 0.024144 -32.555107 0.112900
				CHANNELS 3 Xrotation Yrotation Zrotation
				JOINT LeftFoot
				{
					OFFSET -0.024144 -32.638630 -3.012600
					CHANNELS 3 Xrotation Yrotation Zrotation
					JOINT LeftToeBase
					{
						OFFSET 0.970200 -13.225400 11.864200
						CHANNELS 3 Xrotation Yrotation Zrotation
						End Site
						{
							OFFSET 0.000000 12.319262 0.000000
						}
					}
					JOINT LFootTongue
					{
						OFFSET 1.142400 -1.059800 6.665200
						CHANNELS 3 Xrotation Yrotation Zrotation
						End Site
						{
							OFFSET 0.000000 12.319262 0.000000
						}
					}
				}
				JOINT LeftPantLeg
				{
					OFFSET 0.918482 -16.533964 -2.284700
					CHANNELS 3 Xrotation Yrotation Zrotation
					End Site
					{
						OFFSET 0.350399 24.744368 0.000000
					}
				}
			}
		}
		JOINT RightUpLeg
		{
			OFFSET -8.479700 -4.795502 -0.379100
			CHANNELS 3 Xrotation Yrotation Zrotation
			JOINT RightLeg
			{
				OFFSET -0.023144 -32.555092 0.112900
				CHANNELS 3 Xrotation Yrotation Zrotation
				JOINT RightFoot
				{
					OFFSET 0.023144 -32.638641 -3.012700
					CHANNELS 3 Xrotation Yrotation Zrotation
					JOINT RightToeBase
					{
						OFFSET -0.970200 -13.225400 11.864200
						CHANNELS 3 Xrotation Yrotation Zrotation
						End Site
						{
							OFFSET 0.000000 12.319244 0.000000
						}
					}
					JOINT RFootTongue
					{
						OFFSET -1.142200 -1.059800 6.665200
						CHANNELS 3 Xrotation Yrotation Zrotation
						End Site
						{
							OFFSET 0.000000 12.319243 0.000000
						}
					}
				}
				JOINT RightPantLeg
				{
					OFFSET -0.919482 -16.533978 -2.284800
					CHANNELS 3 Xrotation Yrotation Zrotation
					End Site
					{
						OFFSET -0.350400 24.744419 0.000000
					}
				}
			}
		}
	}
	JOINT Spine
	{
		OFFSET 0.000000 7.722000 1.166200
		CHANNELS 3 Xrotation Yrotation Zrotation
		JOINT Spine1
		{
			OFFSET 0.000000 12.024101 0.248800
			CHANNELS 3 Xrotation Yrotation Zrotation
			JOINT Spine2
			{
				OFFSET 0.000000 11.502998 -0.491200
				CHANNELS 3 Xrotation Yrotation Zrotation
				JOINT Neck
				{
					OFFSET 0.000000 18.430702 -3.123100
					CHANNELS 3 Xrotation Yrotation Zrotation
					JOINT Head
					{
						OFFSET 0.000000 9.051102 1.034000
						CHANNELS 3 Xrotation Yrotation Zrotation
						JOINT HairB
						{
							OFFSET 0.208400 24.786102 24.822300
							CHANNELS 3 Xrotation Yrotation Zrotation
							End Site
							{
								OFFSET 0.000000 32.263779 0.000000
							}
						}
						JOINT HairA
						{
							OFFSET -7.081100 24.428299 23.196600
							CHANNELS 3 Xrotation Yrotation Zrotation
							End Site
							{
								OFFSET 0.000000 32.263779 0.000000
							}
						}
						JOINT Hat
						{
							OFFSET 16.728800 15.048294 -15.439601
							CHANNELS 3 Xrotation Yrotation Zrotation
							End Site
							{
								OFFSET 0.000000 32.263779 0.000000
							}
						}
					}
				}
				JOINT LeftShoulder
				{
					OFFSET 6.197800 13.665199 -4.064700
					CHANNELS 3 Xrotation Yrotation Zrotation
					JOINT LeftArm
					{
						OFFSET 7.778100 -0.187103 -1.709300
						CHANNELS 3 Xrotation Yrotation Zrotation
						JOINT LeftForeArm
						{
							OFFSET 22.049376 0.000000 0.000000
							CHANNELS 3 Xrotation Yrotation Zrotation
							JOINT LeftHand
							{
								OFFSET 23.009392 0.000000 0.000000
								CHANNELS 3 Xrotation Yrotation Zrotation
								JOINT LeftHandThumb1
								{
									OFFSET 3.507191 -2.063065 3.133727
									CHANNELS 3 Xrotation Yrotation Zrotation
									JOINT LeftHandThumb2
									{
										OFFSET 3.101337 -1.790558 1.790558
										CHANNELS 3 Xrotation Yrotation Zrotation
										JOINT LeftHandThumb3
										{
											OFFSET 3.058640 -1.765907 1.765906
											CHANNELS 3 Xrotation Yrotation Zrotation
											End Site
											{
												OFFSET -0.415260 3.926476 -0.049563
											}
										}
									}
								}
								JOINT LeftHandIndex1
								{
									OFFSET 11.334419 -0.901459 3.706815
									CHANNELS 3 Xrotation Yrotation Zrotation
									JOINT LeftHandIndex2
									{
										OFFSET 3.283112 0.000000 0.000000
										CHANNELS 3 Xrotation Yrotation Zrotation
										JOINT LeftHandIndex3
										{
											OFFSET 3.323853 0.000000 0.000000
											CHANNELS 3 Xrotation Yrotation Zrotation
											End Site
											{
												OFFSET -1.135597 3.097809 0.402452
											}
										}
									}
								}
								JOINT LeftHandMiddle1
								{
									OFFSET 11.335861 0.000000 0.000000
									CHANNELS 3 Xrotation Yrotation Zrotation
									JOINT LeftHandMiddle2
									{
										OFFSET 3.410492 0.000000 0.000000
										CHANNELS 3 Xrotation Yrotation Zrotation
										JOINT LeftHandMiddle3
										{
											OFFSET 3.312172 0.000000 0.000000
											CHANNELS 3 Xrotation Yrotation Zrotation
											End Site
											{
												OFFSET -1.150200 3.080154 0.400270
											}
										}
									}
								}
								JOINT LeftHandRing1
								{
									OFFSET 11.514786 -0.013176 -3.003090
									CHANNELS 3 Xrotation Yrotation Zrotation
									JOINT LeftHandRing2
									{
										OFFSET 3.053307 0.000000 0.000000
										CHANNELS 3 Xrotation Yrotation Zrotation
										JOINT LeftHandRing3
										{
											OFFSET 3.295807 0.000000 0.000000
											CHANNELS 3 Xrotation Yrotation Zrotation
											End Site
											{
												OFFSET -1.281006 3.013344 0.375733
											}
										}
									}
								}
								JOINT LeftHandPinky1
								{
									OFFSET 10.518692 -0.960396 -5.730441
									CHANNELS 3 Xrotation Yrotation Zrotation
									JOINT LeftHandPinky2
									{
										OFFSET 2.861649 0.000000 0.000000
										CHANNELS 3 Xrotation Yrotation Zrotation
										JOINT LeftHandPinky3
										{
											OFFSET 2.863380 0.000000 0.000000
											CHANNELS 3 Xrotation Yrotation Zrotation
											End Site
											{
												OFFSET -0.843597 2.711159 0.369971
											}
										}
									}
								}
							}
							JOINT LSleeve
							{
								OFFSET 6.676277 -0.344902 -1.011730
								CHANNELS 3 Xrotation Yrotation Zrotation
								End Site
								{
									OFFSET 0.000000 14.885353 0.000000
								}
							}
						}
					}
				}
				JOINT RightShoulder
				{
					OFFSET -6.197800 13.665199 -4.064700
					CHANNELS 3 Xrotation Yrotation Zrotation
					JOINT RightArm
					{
						OFFSET -7.778100 -0.187103 -1.709300
						CHANNELS 3 Xrotation Yrotation Zrotation
						JOINT RightForeArm
						{
							OFFSET -22.049376 0.000000 0.000000
							CHANNELS 3 Xrotation Yrotation Zrotation
							JOINT RightHand
							{
								OFFSET -23.009392 0.000000 0.000000
								CHANNELS 3 Xrotation Yrotation Zrotation
								JOINT RightHandThumb1
								{
									OFFSET -3.507191 -2.063065 3.133727
									CHANNELS 3 Xrotation Yrotation Zrotation
									JOINT RightHandThumb2
									{
										OFFSET -3.101337 -1.790558 1.790558
										CHANNELS 3 Xrotation Yrotation Zrotation
										JOINT RightHandThumb3
										{
											OFFSET -3.058640 -1.765907 1.765906
											CHANNELS 3 Xrotation Yrotation Zrotation
											End Site
											{
												OFFSET 0.415260 3.926476 -0.049563
											}
										}
									}
								}
								JOINT RightHandIndex1
								{
									OFFSET -11.334419 -0.901459 3.706815
									CHANNELS 3 Xrotation Yrotation Zrotation
									JOINT RightHandIndex2
									{
										OFFSET -3.283112 0.000000 0.000000
										CHANNELS 3 Xrotation Yrotation Zrotation
										JOINT RightHandIndex3
										{
											OFFSET -3.323853 0.000000 0.000000
											CHANNELS 3 Xrotation Yrotation Zrotation
											End Site
											{
												OFFSET 1.135597 3.097809 0.402452
											}
										}
									}
								}
								JOINT RightHandMiddle1
								{
									OFFSET -11.335861 0.000000 0.000000
									CHANNELS 3 Xrotation Yrotation Zrotation
									JOINT RightHandMiddle2
									{
										OFFSET -3.410492 0.000000 0.000000
										CHANNELS 3 Xrotation Yrotation Zrotation
										JOINT RightHandMiddle3
										{
											OFFSET -3.312172 0.000000 0.000000
											CHANNELS 3 Xrotation Yrotation Zrotation
											End Site
											{
												OFFSET 1.150200 3.080154 0.400270
											}
										}
									}
								}
								JOINT RightHandRing1
								{
									OFFSET -11.514786 -0.013176 -3.003090
									CHANNELS 3 Xrotation Yrotation Zrotation
									JOINT RightHandRing2
									{
										OFFSET -3.053307 0.000000 0.000000
										CHANNELS 3 Xrotation Yrotation Zrotation
										JOINT RightHandRing3
										{
											OFFSET -3.295807 0.000000 0.000000
											CHANNELS 3 Xrotation Yrotation Zrotation
											End Site
											{
												OFFSET 1.281006 3.013344 0.375733
											}
										}
									}
								}
								JOINT RightHandPinky1
								{
									OFFSET -10.518692 -0.960396 -5.730441
									CHANNELS 3 Xrotation Yrotation Zrotation
									JOINT RightHandPinky2
									{
										OFFSET -2.861649 0.000000 0.000000
										CHANNELS 3 Xrotation Yrotation Zrotation
										JOINT RightHandPinky3
										{
											OFFSET -2.863380 0.000000 0.000000
											CHANNELS 3 Xrotation Yrotation Zrotation
											End Site
											{
												OFFSET 0.843597 2.711159 0.369971
											}
										}
									}
								}
							}
							JOINT RSleeve
							{
								OFFSET -6.676277 -0.344902 -1.011730
								CHANNELS 3 Xrotation Yrotation Zrotation
								End Site
								{
									OFFSET 0.000000 14.885353 0.000000
								}
							}
						}
					}
				}
				JOINT Backpack
				{
					OFFSET 0.000000 -2.471497 36.677502
					CHANNELS 3 Xrotation Yrotation Zrotation
					End Site
					{
						OFFSET 0.000000 20.427315 0.000000
					}
				}
				JOINT Hood
				{
					OFFSET 0.000000 18.754097 -10.431000
					CHANNELS 3 Xrotation Yrotation Zrotation
					JOINT Hood1
					{
						OFFSET 0.000000 -5.011002 -7.685901
						CHANNELS 3 Xrotation Yrotation Zrotation
						End Site
						{
							OFFSET 0.000000 9.175140 0.000000
						}
					}
				}
				JOINT LHoodieString
				{
					OFFSET 5.250500 16.397697 3.089900
					CHANNELS 3 Xrotation Yrotation Zrotation
					JOINT LHoodieString1
					{
						OFFSET 0.257700 -6.364304 3.694600
						CHANNELS 3 Xrotation Yrotation Zrotation
						JOINT LHoodieString2
						{
							OFFSET 0.000000 -9.643799 2.679100
							CHANNELS 3 Xrotation Yrotation Zrotation
							End Site
							{
								OFFSET 0.000000 10.009018 0.000000
							}
						}
					}
				}
				JOINT RHoodieString
				{
					OFFSET -5.250500 16.397697 3.089900
					CHANNELS 3 Xrotation Yrotation Zrotation
					JOINT RHoodieString1
					{
						OFFSET -0.257700 -6.364304 3.694600
						CHANNELS 3 Xrotation Yrotation Zrotation
						JOINT RHoodieString2
						{
							OFFSET 0.000000 -9.643799 2.679100
							CHANNELS 3 Xrotation Yrotation Zrotation
							End Site
							{
								OFFSET 0.000000 10.009018 0.000000
							}
						}
					}
				}
			}
			JOINT LBackpack_Strap
			{
				OFFSET 15.223200 -7.719803 -6.610900
				CHANNELS 3 Xrotation Yrotation Zrotation
				End Site
				{
					OFFSET 0.000000 16.040596 0.000000
				}
			}
			JOINT RBackpack_Strap
			{
				OFFSET -15.223000 -7.719803 -6.610900
				CHANNELS 3 Xrotation Yrotation Zrotation
				End Site
				{
					OFFSET 0.000000 16.040596 0.000000
				}
			}
		}
	}
	JOINT BoyFacialAnim_Joint
	{
		OFFSET 1.000000 -82.208099 -1.550900
		CHANNELS 3 Xrotation Yrotation Zrotation
		End Site
		{
			OFFSET 0.000000 30.012791 0.000000
		}
	}
}
MOTION
Frames: 4
Frame Time: 0.033333
-0.602368 78.823059 2.663684 2.399816 -22.440749 3.302222 -0.000000 0.000001 0.000000 -13.448105 5.034602 3.713690 30.226879 10.055426 4.525202 -14.193276 16.411573 -13.039524 0.000000 0.000000 0.000000 0.000000 0.000000 0.000000 -0.000002 0.000000 0.000001 -25.717039 0.807735 -10.938217 36.427779 2.141687 2.227652 -12.832678 -0.750392 5.317738 0.000000 0.000000 0.000000 0.000000 0.000000 0.000000 0.000000 -0.000002 -0.000001 -2.103664 0.962015 -2.732168 2.806400 0.096439 -0.056397 2.806013 0.111907 -0.052480 0.266293 1.505923 -0.380427 -5.285100 10.395037 -11.905242 -0.000000 0.000001 0.000000 -0.000000 0.000001 0.000000 -0.000000 0.000001 0.000000 -0.062170 -0.352525 14.113613 -72.664238 22.536230 -19.722870 0.000010 -133.647131 0.000033 -57.013379 -2.294880 -19.223359 -3.091782 17.377751 12.080257 3.939058 7.948692 0.746810 0.000000 0.000000 -0.000000 0.001498 0.143953 -1.192946 0.000001 0.000004 -0.000029 0.000001 0.000000 -0.000002 0.089292 1.107529 -9.218267 -0.000000 -0.000062 0.000065 0.000001 -0.000000 0.000000 0.162458 1.489815 -12.445580 -0.000003 -0.000012 0.000010 0.000000 0.000000 -0.000000 0.747465 5.141590 -9.016555 -0.018109 -4.056680 -0.490993 0.000001 0.000000 -0.000002 -0.000000 0.000001 0.000002 -0.302076 -2.470396 -7.645838 -75.810380 -2.896439 32.611742 0.000016 138.752902 -0.000021 -44.254322 14.095170 -3.607335 -2.620300 -23.323388 -9.850502 4.637196 -8.634124 -0.225401 -0.000004 -0.000001 -0.000003 0.001110 -0.124922 1.025093 0.033593 -0.684024 5.622134 -0.000001 -0.000000 0.000003 0.008829 -0.351065 2.881932 0.054099 -0.867381 7.136363 0.000001 0.000001 -0.000000 0.028862 -0.634220 5.211545 0.087009 -1.098800 9.055106 -0.000000 0.000003 0.000002 0.053869 -0.865692 7.122356 0.117912 -1.277691 10.545385 -0.000001 -0.000001 0.000000 -0.000000 -0.000001 -0.000001 -0.000000 -0.000001 0.000000 -0.000000 -0.000001 0.000000 -0.000000 -0.000001 0.000000 -0.000000 -0.000001 0.000000 -0.000000 -0.000001 0.000000 -0.000000 -0.000001 0.000000 -0.000000 -0.000001 0.000000 -0.000000 -0.000001 0.000000 -0.000000 -0.000001 0.000000 0.000000 0.000000 -0.000000 0.000000 0.000000 -0.000000 -0.000000 0.000001 0.000000 
-0.836324 78.799767 2.704006 2.131862 -22.314112 2.715457 -0.000000 0.000001 -0.000000 -13.227424 4.033545 4.208332 30.575318 10.016001 4.401027 -14.295881 17.253331 -13.228721 -0.000000 -0.000000 -0.000000 -0.000000 -0.000000 -0.000000 0.000001 -0.000001 0.000001 -25.380230 0.275152 -10.533972 36.358408 2.198898 2.510027 -12.886842 -0.682728 4.932224 -0.000000 -0.000000 -0.000000 -0.000000 -0.000000 -0.000000 -0.000000 0.000001 -0.000001 -1.452947 2.282110 -2.645434 2.695024 0.287351 0.233137 2.692669 0.300607 0.243934 0.292330 1.506416 -0.701144 -5.021156 9.914259 -11.697785 0.000000 -0.000000 0.000001 0.000000 -0.000000 0.000001 0.000000 -0.000000 0.000001 -0.463835 1.396781 14.936215 -79.008186 22.037850 -17.906133 0.000041 -135.486774 0.000037 -59.716952 -5.433043 -14.966099 -3.091780 17.377753 12.080253 3.939058 7.948695 0.746810 0.000000 -0.000001 0.000001 0.003948 -0.233696 1.936864 0.000002 -0.000001 -0.000026 -0.000000 0.000002 -0.000003 0.030712 0.650925 -5.402070 0.000003 -0.000063 -0.000129 -0.000000 -0.000001 -0.000003 0.077900 1.034922 -8.609068 -0.000000 -0.000015 -0.000136 0.000000 0.000001 -0.000004 0.438515 4.748101 -5.433482 -0.018115 -4.056682 -0.491011 -0.000003 0.000002 0.000002 -0.000001 0.000002 0.000002 -0.268280 -2.240985 -7.547317 -73.923752 -3.121858 33.080611 0.000002 138.777491 0.000002 -43.442568 15.756973 -4.149354 -2.620289 -23.323382 -9.850511 4.637203 -8.634128 -0.225404 -0.000001 -0.000001 -0.000002 0.001565 0.147794 -1.212815 0.021569 -0.548189 4.503042 -0.000002 -0.000001 0.000003 0.000421 -0.076281 0.625956 0.037895 -0.726398 5.971684 0.000003 0.000000 0.000003 0.009033 -0.355021 2.914469 0.065755 -0.955890 7.869153 -0.000001 -0.000001 0.000000 0.024253 -0.581450 4.776856 0.093205 -1.136944 9.372297 0.000000 -0.000002 -0.000004 -0.000002 0.000004 0.000002 -0.000000 0.000001 -0.000000 -0.000000 0.000001 -0.000000 -0.000000 0.000001 -0.000000 -0.000000 0.000001 -0.000000 -0.000000 0.000001 0.000000 -0.000000 0.000001 -0.000000 -0.000000 0.000001 -0.000000 -0.000000 0.000001 0.000000 -0.000000 0.000001 -0.000000 0.000000 -0.000000 0.000000 0.000000 -0.000000 0.000000 -0.000000 0.000001 -0.000000 
-1.135262 78.823311 2.750025 1.213272 -22.638578 1.735662 -0.000000 -0.000001 -0.000000 -12.178852 3.816770 5.036253 30.636325 9.893990 4.425671 -14.361747 17.781245 -13.542219 0.000000 -0.000000 -0.000000 0.000000 -0.000000 -0.000000 0.000001 0.000001 0.000001 -24.320086 -0.261419 -9.340215 36.085054 2.263397 1.879694 -12.871195 -0.671500 4.876380 0.000000 0.000000 -0.000000 0.000000 0.000000 -0.000000 0.000000 -0.000002 0.000000 -0.750384 3.945472 -2.578117 2.861805 0.525764 0.669691 2.854327 0.538932 0.689759 0.652111 1.509883 -0.819967 -4.052347 9.779436 -11.813243 -0.000000 0.000000 0.000001 -0.000000 0.000000 0.000001 -0.000000 0.000000 0.000001 -0.879549 3.103879 15.589939 -81.144498 20.750072 -18.838215 0.000057 -137.008090 0.000054 -61.337298 -7.608707 -12.219158 -3.091781 17.377750 12.080255 3.939057 7.948696 0.746802 0.000000 -0.000001 -0.000004 0.005934 -0.286314 2.373168 -0.000004 -0.000003 -0.000034 0.000001 0.000000 -0.000002 0.013273 0.428192 -3.550491 0.000007 -0.000065 0.000005 0.000001 -0.000000 0.000002 0.043204 0.771646 -6.407927 0.000436 0.078027 -0.646600 0.000000 -0.000000 -0.000004 0.315614 4.576286 -3.921515 -0.014797 -3.894185 -1.837557 -0.000001 0.000001 0.000003 -0.000001 0.000001 0.000003 -0.166613 -1.620560 -6.915488 -70.071621 -3.628555 33.506852 -0.000002 138.769199 0.000000 -42.546662 16.481342 -4.335030 -2.620294 -23.323387 -9.850521 4.637198 -8.634127 -0.225404 -0.000003 0.000002 -0.000004 0.009660 0.367111 -3.013813 0.013793 -0.438732 3.602500 -0.000000 -0.000001 0.000005 0.001792 0.158030 -1.296859 0.026348 -0.606000 4.979048 0.000000 0.000001 -0.000002 0.000730 -0.100469 0.824452 0.048973 -0.825500 6.790076 0.000001 -0.000002 -0.000002 0.006851 -0.309229 2.538247 0.072293 -1.002158 8.252663 -0.000003 -0.000003 0.000001 -0.000002 -0.000004 -0.000003 -0.000000 -0.000002 0.000000 -0.000000 -0.000002 0.000000 -0.000000 -0.000002 0.000000 -0.000000 -0.000002 0.000000 -0.000000 -0.000002 0.000000 -0.000000 -0.000000 -0.000000 -0.000000 -0.000002 0.000000 -0.000000 -0.000002 0.000000 -0.000000 -0.000000 -0.000000 -0.000000 0.000001 -0.000000 -0.000000 0.000001 -0.000000 -0.000000 -0.000001 -0.000000 
-1.409509 78.491165 2.747004 -0.427972 -23.548795 0.328911 0.000000 -0.000001 -0.000000 -11.366326 4.563096 6.275778 32.569641 9.601140 4.669157 -15.414957 18.114956 -14.139166 0.000000 -0.000000 -0.000000 0.000000 -0.000000 0.000000 -0.000001 -0.000000 -0.000000 -23.534928 -0.834516 -7.417336 37.483522 2.759915 0.114466 -13.622833 -0.763154 5.182009 -0.000000 0.000002 0.000000 -0.000000 0.000002 0.000000 -0.000000 -0.000002 0.000001 0.232379 5.955209 -2.468892 3.263253 0.814671 1.268892 3.245007 0.832072 1.302570 1.306691 1.551799 -0.878756 -2.655489 10.058979 -12.325597 0.000000 -0.000000 0.000000 0.000000 -0.000000 0.000000 0.000000 -0.000000 0.000000 -1.191727 4.376412 15.848561 -79.761221 18.663449 -22.125262 -0.000002 -137.846249 0.000002 -61.193133 -9.476771 -8.891562 -3.091779 17.377750 12.080253 3.939057 7.948695 0.746807 0.000000 0.000000 -0.000001 0.002511 -0.186323 1.544136 0.001483 0.143160 -1.186385 -0.000001 0.000001 -0.000005 0.009234 0.357318 -2.962204 0.007276 0.316990 -2.627656 -0.000001 -0.000001 -0.000002 0.029430 0.637251 -5.288287 0.019881 0.524007 -4.346308 -0.000001 -0.000000 -0.000002 0.283609 4.529912 -3.518354 0.023061 -3.360783 -6.267359 0.000000 0.000002 0.000000 -0.000001 -0.000001 -0.000001 0.032125 -0.435082 -5.702164 -64.326216 -4.346526 33.553516 0.000034 138.703575 -0.000032 -40.083614 15.542437 -5.045013 -2.620289 -23.323388 -9.850486 4.637196 -8.634127 -0.225404 -0.000002 0.000000 -0.000001 0.017298 0.491242 -4.034351 0.010176 -0.376651 3.092220 -0.000001 0.000001 0.000000 0.006915 0.310606 -2.549561 0.019946 -0.527457 4.332350 -0.000000 -0.000002 -0.000001 0.000562 0.088588 -0.726913 0.038110 -0.728511 5.989149 0.000001 0.000000 0.000000 0.000578 -0.089695 0.736055 0.057381 -0.893365 7.351322 0.000001 -0.000001 0.000000 0.000002 -0.000000 -0.000000 -0.000000 -0.000000 -0.000000 -0.000000 -0.000000 -0.000000 -0.000000 -0.000000 -0.000000 -0.000000 -0.000000 -0.000000 -0.000000 -0.000000 -0.000000 0.000000 -0.000002 0.000000 -0.000000 -0.000000 -0.000000 -0.000000 -0.000000 -0.000000 0.000000 -0.000002 0.000000 0.000000 -0.000000 0.000000 0.000000 -0.000000 0.000000 0.000000 -0.000001 -0.000000 
